<svg version="1.1" xmlns="http://www.w3.org/2000/svg" viewBox="-25.000001 -49.000001 132.000002 98.000002" fill="none" stroke="black" stroke-width="0.6%" vector-effect="non-scaling-stroke">
    <path d="M 24 -1 L 25 -1 A 1 1 0 0 1 26 0 A 1 1 0 0 1 25 1 L 24 1 L 24 48 L -24 48 L -24 -48 L 24 -48 L 24 -1 Z" />
    <path d="M -6 0 A 1 1 0 0 1 -5 -1 L 5 -1 A 1 1 0 0 1 6 0 A 1 1 0 0 1 5 1 L -5 1 A 1 1 0 0 1 -6 0 Z" />
    <path d="M 75 -1 L 85 -1 A 1 1 0 0 1 86 0 A 1 1 0 0 1 85 1 L 75 1 A 1 1 0 0 1 74 0 A 1 1 0 0 1 75 -1 Z" />
    <path d="M 35 -1 L 45 -1 A 1 1 0 0 1 46 0 A 1 1 0 0 1 45 1 L 35 1 A 1 1 0 0 1 34 0 A 1 1 0 0 1 35 -1 Z" />
    <path d="M 55 -1 L 65 -1 A 1 1 0 0 1 66 0 A 1 1 0 0 1 65 1 L 55 1 A 1 1 0 0 1 54 0 A 1 1 0 0 1 55 -1 Z" />
    <path d="M 95 -1 L 105 -1 A 1 1 0 0 1 106 0 A 1 1 0 0 1 105 1 L 95 1 A 1 1 0 0 1 94 0 A 1 1 0 0 1 95 -1 Z" />
</svg>